<?xml version="1.0" encoding="utf-8"?>
<!-- Generator: Adobe Illustrator 18.0.0, SVG Export Plug-In . SVG Version: 6.00 Build 0)  -->
<!DOCTYPE svg PUBLIC "-//W3C//DTD SVG 1.1//EN" "http://www.w3.org/Graphics/SVG/1.1/DTD/svg11.dtd">
<svg version="1.1" id="Layer_1" xmlns="http://www.w3.org/2000/svg" xmlns:xlink="http://www.w3.org/1999/xlink" x="0px" y="0px"
	 viewBox="0 0 350 50" enable-background="new 0 0 350 50" xml:space="preserve">
<g>
	<g>
		<path fill="#8E44AD" d="M4.5,6.7h15.3c3.5,0,6.7,0.5,9.5,1.4c2.8,1,5.1,2.3,7,4c1.9,1.7,3.4,3.8,4.4,6.2c1,2.4,1.5,5,1.5,7.9v0.1
			c0,2.9-0.5,5.5-1.5,7.9c-1,2.4-2.5,4.5-4.4,6.3c-1.9,1.8-4.3,3.2-7.1,4.2c-2.8,1-6,1.5-9.5,1.5h-15V6.7z M20,36.6
			c3.3,0,5.9-0.9,7.9-2.6c2-1.7,3-4.2,3-7.4v-0.1c0-3.2-1-5.6-3-7.4c-2-1.8-4.7-2.6-7.9-2.6h-4.5v20.1H20z"/>
		<path fill="#8E44AD" d="M53.3,47c-1.5,0-2.8-0.2-4.1-0.6c-1.2-0.4-2.3-1-3.3-1.8c-0.9-0.8-1.6-1.8-2.2-2.9
			c-0.5-1.2-0.8-2.5-0.8-4.1v-0.1c0-1.6,0.3-3,0.9-4.2c0.6-1.2,1.4-2.2,2.4-3c1-0.8,2.3-1.4,3.8-1.8c1.5-0.4,3.1-0.6,4.9-0.6
			c1.4,0,2.8,0.1,4.1,0.4c1.3,0.2,2.4,0.5,3.3,0.8v-0.5c0-1.6-0.5-2.8-1.5-3.7c-1-0.9-2.5-1.3-4.6-1.3c-1.6,0-3.1,0.2-4.4,0.5
			c-1.3,0.3-2.7,0.7-4,1.2l-2.2-7.6c1.7-0.7,3.6-1.3,5.5-1.7c1.9-0.4,4.2-0.7,6.9-0.7c2.8,0,5.1,0.3,7,1c1.9,0.6,3.5,1.6,4.7,2.8
			c1.2,1.1,2,2.5,2.5,4.1c0.5,1.6,0.8,3.5,0.8,5.6v17.6H62.3v-3.2c-1.1,1.2-2.3,2.1-3.8,2.8C57.1,46.6,55.4,47,53.3,47z M57.2,40.2
			c1.6,0,2.9-0.5,3.8-1.4c1-0.9,1.5-2.1,1.5-3.7v-1.4c-0.5-0.2-1.2-0.4-1.9-0.6c-0.7-0.2-1.5-0.2-2.3-0.2c-1.6,0-2.8,0.3-3.6,1
			c-0.8,0.7-1.3,1.6-1.3,2.7v0.1c0,1.1,0.4,1.9,1.1,2.5C55.2,40,56.1,40.2,57.2,40.2z"/>
		<path fill="#8E44AD" d="M77.7,15.7h10.8V20c0.5-0.6,1-1.3,1.6-1.9c0.6-0.6,1.3-1.1,2-1.6c0.7-0.5,1.6-0.8,2.5-1.1
			c0.9-0.3,1.9-0.4,3-0.4c3.3,0,5.9,1,7.7,3c1.8,2,2.8,4.8,2.8,8.3v20H97.2V29.7c0-1.7-0.4-3-1.2-3.8c-0.8-0.9-1.8-1.3-3.1-1.3
			c-1.3,0-2.4,0.4-3.2,1.3c-0.8,0.9-1.3,2.1-1.3,3.8v16.6H77.7V15.7z"/>
		<path fill="#8E44AD" d="M113.5,5h11.3v7.9h-11.3V5z M113.7,15.7h10.8v30.6h-10.8V15.7z"/>
		<path fill="#8E44AD" d="M145.2,47c-2.4,0-4.6-0.4-6.6-1.2c-2-0.8-3.7-1.8-5.2-3.2c-1.5-1.4-2.6-3-3.4-5c-0.8-2-1.2-4.1-1.2-6.5V31
			c0-2.2,0.4-4.3,1.1-6.3c0.8-1.9,1.8-3.6,3.2-5.1c1.4-1.5,3-2.6,4.9-3.4c1.9-0.8,4-1.2,6.2-1.2c2.6,0,4.9,0.5,6.9,1.4
			c1.9,0.9,3.5,2.1,4.8,3.6c1.3,1.5,2.2,3.3,2.8,5.3c0.6,2,0.9,4.2,0.9,6.4c0,0.3,0,0.7,0,1.1c0,0.4,0,0.8-0.1,1.1h-20.5
			c0.4,1.7,1.2,3,2.3,3.8c1.1,0.8,2.6,1.2,4.3,1.2c1.3,0,2.5-0.2,3.5-0.7c1.1-0.5,2.2-1.3,3.3-2.4l5.9,4.9c-1.5,1.9-3.3,3.4-5.5,4.5
			C150.9,46.5,148.3,47,145.2,47z M149.7,28.5c-0.2-1.7-0.8-3-1.7-4c-0.9-1-2.1-1.5-3.6-1.5c-1.4,0-2.6,0.5-3.5,1.5
			c-0.9,1-1.5,2.3-1.8,4H149.7z"/>
		<path fill="#8E44AD" d="M164.3,5h10.8v41.3h-10.8V5z"/>
		<path fill="#8E44AD" d="M177.2,23c1.9-0.2,3.4-0.7,4.3-1.6s1.4-2.1,1.3-3.7h-4.4v-11h11.2v9c0,2.1-0.3,3.9-0.8,5.3
			c-0.5,1.4-1.3,2.6-2.3,3.5c-1,0.9-2.2,1.5-3.6,2s-3,0.7-4.8,0.7L177.2,23z"/>
		<path fill="#8E44AD" d="M202.5,47c-2.6,0-5.1-0.4-7.6-1.1c-2.5-0.7-4.8-1.9-6.9-3.4l4-6.5c1.8,1.2,3.6,2,5.4,2.6
			c1.8,0.6,3.5,0.9,5.1,0.9c1.8,0,2.7-0.5,2.7-1.6v-0.1c0-0.6-0.4-1.1-1.2-1.4c-0.8-0.3-2.1-0.7-3.7-1.2c-1.5-0.4-2.9-0.8-4.2-1.3
			c-1.3-0.5-2.5-1.1-3.5-1.9c-1-0.7-1.8-1.6-2.3-2.7c-0.6-1.1-0.8-2.4-0.8-3.9v-0.1c0-1.6,0.3-3.1,0.9-4.3c0.6-1.3,1.5-2.3,2.6-3.2
			s2.4-1.5,3.9-2s3.1-0.7,4.9-0.7c2.3,0,4.5,0.3,6.7,0.9c2.2,0.6,4.2,1.5,5.9,2.6l-3.7,6.8c-1.6-0.9-3.2-1.6-4.8-2.1s-3-0.8-4.2-0.8
			c-0.8,0-1.5,0.1-1.9,0.4c-0.4,0.3-0.6,0.6-0.6,1v0.1c0,0.6,0.4,1.1,1.3,1.4c0.8,0.4,2.1,0.8,3.7,1.3c1.5,0.4,2.9,0.9,4.2,1.4
			c1.3,0.5,2.5,1.1,3.5,1.9c1,0.7,1.8,1.6,2.3,2.7c0.6,1.1,0.8,2.3,0.8,3.8v0.1c0,1.7-0.3,3.2-0.9,4.4c-0.6,1.3-1.5,2.3-2.5,3.2
			c-1.1,0.9-2.4,1.5-4,2C206,46.8,204.3,47,202.5,47z"/>
	</g>
</g>
<g>
	<path fill="#8E44AD" d="M230.5,24.1c-1.4,0-2.7-0.2-3.8-0.7c-1.1-0.5-2.1-1.2-2.8-2c-0.8-0.8-1.4-1.8-1.8-3s-0.6-2.3-0.6-3.6v-0.1
		c0-1.2,0.2-2.4,0.6-3.5s1-2.1,1.8-3c0.8-0.9,1.7-1.5,2.8-2.1c1.1-0.5,2.3-0.8,3.7-0.8c0.7,0,1.4,0.1,2,0.2s1.2,0.3,1.7,0.5
		c0.5,0.2,1,0.5,1.5,0.7c0.5,0.3,0.9,0.6,1.4,1l-0.9,1c-0.7-0.6-1.5-1.1-2.4-1.5c-0.9-0.4-2-0.6-3.4-0.6c-1.1,0-2.1,0.2-3,0.6
		c-0.9,0.4-1.7,1-2.4,1.7s-1.2,1.6-1.5,2.6s-0.5,2-0.5,3.1v0.1c0,1.2,0.2,2.2,0.5,3.2c0.4,1,0.9,1.9,1.5,2.6
		c0.7,0.7,1.5,1.3,2.4,1.7c1,0.4,2,0.6,3.2,0.6c0.6,0,1.1-0.1,1.7-0.2c0.5-0.1,1.1-0.3,1.6-0.4c0.5-0.2,0.9-0.4,1.4-0.7
		c0.4-0.2,0.8-0.5,1.1-0.8v-5.2h-6v-1.2h7.3v6.9c-0.8,0.7-1.8,1.3-3.1,1.9C233.3,23.9,231.9,24.1,230.5,24.1z"/>
	<path fill="#8E44AD" d="M248.8,5.7h1.3l8.4,18.2h-1.5l-2.3-5.1h-10.6l-2.3,5.1h-1.4L248.8,5.7z M254.2,17.6l-4.7-10.4l-4.8,10.4
		H254.2z"/>
	<path fill="#8E44AD" d="M262.2,5.8h1.3v16.8h10.6v1.2h-11.9V5.8z"/>
	<path fill="#8E44AD" d="M277.8,5.8h1.3v16.8h10.6v1.2h-11.9V5.8z"/>
	<path fill="#8E44AD" d="M293.5,5.8h12.8V7h-11.5v7.1h10.3v1.2h-10.3v7.3h11.6v1.2h-13V5.8z"/>
	<path fill="#8E44AD" d="M310.4,5.8h7.6c1.1,0,2.1,0.2,3,0.5c0.9,0.3,1.6,0.8,2.1,1.3c0.4,0.4,0.8,0.9,1,1.5
		c0.2,0.6,0.4,1.2,0.4,1.8V11c0,0.8-0.1,1.4-0.4,2c-0.3,0.6-0.6,1.1-1.1,1.5c-0.5,0.4-1,0.8-1.7,1c-0.6,0.3-1.3,0.5-2.1,0.6l6,7.7
		h-1.7l-5.7-7.5h-0.1h-5.8v7.5h-1.3V5.8z M317.8,15.2c0.8,0,1.5-0.1,2.1-0.3c0.6-0.2,1.2-0.5,1.7-0.8s0.8-0.8,1.1-1.3
		c0.3-0.5,0.4-1.1,0.4-1.7V11c0-1.2-0.5-2.2-1.4-2.9c-0.9-0.7-2.2-1.1-3.8-1.1h-6.2v8.1H317.8z"/>
	<path fill="#8E44AD" d="M334.1,16.7l-7.7-10.9h1.7l6.8,9.7l6.8-9.7h1.6l-7.7,10.9v7.2h-1.3V16.7z"/>
	<path fill="#8E44AD" d="M230.3,48.8c-1.3,0-2.5-0.2-3.6-0.7c-1.1-0.5-2-1.1-2.8-2c-0.8-0.8-1.4-1.8-1.9-3c-0.4-1.1-0.7-2.3-0.7-3.6
		v-0.1c0-1.3,0.2-2.5,0.7-3.6s1.1-2.1,1.9-3s1.7-1.5,2.8-2c1.1-0.5,2.3-0.7,3.6-0.7c0.8,0,1.5,0.1,2.2,0.2c0.7,0.1,1.3,0.3,1.8,0.6
		c0.6,0.3,1.1,0.6,1.6,0.9c0.5,0.4,1,0.7,1.4,1.2l-1,1c-0.4-0.4-0.8-0.7-1.2-1.1c-0.4-0.3-0.9-0.6-1.4-0.8c-0.5-0.2-1-0.4-1.6-0.6
		c-0.6-0.1-1.2-0.2-1.9-0.2c-1.1,0-2.1,0.2-3,0.6s-1.7,1-2.4,1.7c-0.7,0.7-1.2,1.6-1.6,2.6c-0.4,1-0.6,2-0.6,3.2v0.1
		c0,1.1,0.2,2.2,0.6,3.2c0.4,1,0.9,1.8,1.6,2.6c0.7,0.7,1.5,1.3,2.4,1.7s1.9,0.6,3,0.6c1.3,0,2.4-0.2,3.4-0.7c1-0.5,1.9-1.2,2.8-2.1
		l0.9,0.9c-0.5,0.5-1,0.9-1.5,1.3c-0.5,0.4-1,0.7-1.6,1c-0.6,0.3-1.2,0.5-1.9,0.6C231.9,48.7,231.1,48.8,230.3,48.8z"/>
	<path fill="#8E44AD" d="M239.7,30.4h7.6c1.1,0,2.1,0.2,3,0.5c0.9,0.3,1.6,0.8,2.1,1.3c0.4,0.4,0.8,0.9,1,1.5
		c0.2,0.6,0.4,1.2,0.4,1.8v0.1c0,0.8-0.1,1.4-0.4,2c-0.3,0.6-0.6,1.1-1.1,1.5c-0.5,0.4-1,0.8-1.7,1c-0.6,0.3-1.3,0.5-2.1,0.6l6,7.7
		h-1.7l-5.7-7.5h-0.1H241v7.5h-1.3V30.4z M247.1,39.8c0.8,0,1.5-0.1,2.1-0.3c0.6-0.2,1.2-0.5,1.7-0.8s0.8-0.8,1.1-1.3
		c0.3-0.5,0.4-1.1,0.4-1.7v-0.1c0-1.2-0.5-2.2-1.4-2.9c-0.9-0.7-2.2-1.1-3.8-1.1H241v8.1H247.1z"/>
	<path fill="#8E44AD" d="M256.7,30.4h12.8v1.2H258v7.1h10.3V40H258v7.3h11.6v1.2h-13V30.4z"/>
	<path fill="#8E44AD" d="M280.7,30.3h1.3l8.4,18.2h-1.5l-2.3-5.1H276l-2.3,5.1h-1.4L280.7,30.3z M286,42.2l-4.7-10.4l-4.8,10.4H286z
		"/>
	<path fill="#8E44AD" d="M296.4,31.7h-6.3v-1.2h13.9v1.2h-6.3v16.8h-1.3V31.7z"/>
	<path fill="#8E44AD" d="M314.8,48.8c-1.4,0-2.6-0.3-3.7-0.8c-1.1-0.5-2.1-1.2-2.8-2c-0.8-0.9-1.4-1.8-1.8-3
		c-0.4-1.1-0.6-2.3-0.6-3.5v-0.1c0-1.2,0.2-2.4,0.7-3.5c0.4-1.1,1.1-2.1,1.8-3c0.8-0.9,1.7-1.5,2.9-2c1.1-0.5,2.4-0.8,3.7-0.8
		c1.4,0,2.6,0.3,3.7,0.8c1.1,0.5,2.1,1.2,2.9,2c0.8,0.8,1.4,1.8,1.8,3c0.4,1.1,0.6,2.3,0.6,3.5c0,0,0,0,0,0.1c0,1.2-0.2,2.4-0.7,3.5
		c-0.4,1.1-1.1,2.1-1.8,3c-0.8,0.9-1.7,1.5-2.9,2C317.4,48.5,316.1,48.8,314.8,48.8z M314.8,47.6c1.1,0,2.1-0.2,3.1-0.6
		s1.7-1,2.4-1.7c0.7-0.7,1.2-1.6,1.6-2.6c0.4-1,0.6-2,0.6-3.1v-0.1c0-1.1-0.2-2.2-0.6-3.2c-0.4-1-0.9-1.8-1.6-2.6
		c-0.7-0.7-1.5-1.3-2.4-1.7c-0.9-0.4-2-0.6-3.1-0.6c-1.1,0-2.1,0.2-3.1,0.6c-0.9,0.4-1.7,1-2.4,1.7c-0.7,0.7-1.2,1.6-1.6,2.6
		c-0.4,1-0.6,2-0.6,3.1v0.1c0,1.1,0.2,2.2,0.6,3.2c0.4,1,0.9,1.8,1.6,2.6s1.5,1.3,2.4,1.7C312.7,47.4,313.7,47.6,314.8,47.6z"/>
	<path fill="#8E44AD" d="M328.4,30.4h7.6c1.1,0,2.1,0.2,3,0.5c0.9,0.3,1.6,0.8,2.1,1.3c0.4,0.4,0.8,0.9,1,1.5
		c0.2,0.6,0.4,1.2,0.4,1.8v0.1c0,0.8-0.1,1.4-0.4,2c-0.3,0.6-0.6,1.1-1.1,1.5c-0.5,0.4-1,0.8-1.7,1c-0.6,0.3-1.3,0.5-2.1,0.6l6,7.7
		h-1.7l-5.7-7.5h-0.1h-5.8v7.5h-1.3V30.4z M335.8,39.8c0.8,0,1.5-0.1,2.1-0.3s1.2-0.5,1.7-0.8s0.8-0.8,1.1-1.3
		c0.3-0.5,0.4-1.1,0.4-1.7v-0.1c0-1.2-0.5-2.2-1.4-2.9c-0.9-0.7-2.2-1.1-3.8-1.1h-6.2v8.1H335.8z"/>
</g>
</svg>
